**ABCDEFGHIJKLMNOPQRSTUVWXYZabcdefghijklmnopqrstuvwxyz**************************
**PARASOLID !"#$%&'()*+,-./:;<=>?@[\]^_`{|}~0123456789**************************
**PART1;
MC=unknown;
MC_MODEL=unknown;
MC_ID=unknown;
OS=unknown;
OS_RELEASE=unknown;
FRU=Parasolid 30.1.168;
APPL=Onshape;
SITE=unknown;
USER=unknown;
FORMAT=text;
GUISE=transmit;
KEY=BTGapi::writeModels_.xmt;
FILE=BTGapi::writeModels_.xmt;
DATE=2018-03-26T20:39:54 (UTC);
**PART2;
SCH=SCH_3001168_30100;
USFLD_SIZE=0;
**PART3;
**END_OF_HEADER*****************************************************************
T51 : TRANSMIT FILE created by modeller version 300116823 SCH_3001168_30100_1300
6214 0 10 20 CCCCCCCI4 mesh1006 0 I8 polyline1008 0 CCCCCCCCCCA16 mesh_offset_da
ta206 0 Z1 8 0 0 0 0 0 0 0 0 0 1e3 1e-8 0 0 0 1 0 1 2 0 11 255 2 6 0 1 3 4 1 5 0
 0 0 12 34 CCCCCCI4 mesh1006 0 I8 polyline1008 0 CCCCCCCDI5 owner1040 0 CCCCCCI1
3 boundary_mesh1006 0 I17 boundary_polyline1008 0 CCCA16 index_map_offset0 0 1 d
A9 index_map82 0 A17 node_id_index_map82 0 A20 schema_embedding_map82 0 A5 child
12 0 A14 lowest_node_id0 0 1 dA16 mesh_offset_data206 0 Z3 119 6 7 0 0 0 0 0 0 1
e3 1e-8 2 8 0 1 0 1 1 9 10 11 0 0 0 12 13 0 0 0 0 0 0 0 0 100 255 4 7 2 0 0 .999
465047811099 .03270501802412975 0 -.03270501802412975 .999465047811099 0 0 0 1 -
.02427191804029175 .0380516640983038 .01080796573148936 1 3 ?11 5 3 0 1 8 14 1 0
 2 0 0 12 8 530 15 16 0 0 0 0 0 0 1e3 1e-8 5 0 3 1 0 1 1 17 18 19 20 0 0 21 22 2
3 0 0 0 0 0 0 0 100 14 4 5 0 0 1 0 0 0 0 1 0 -1 0 -.02427191804029175 .038051664
0983038 -.0707930683419108 1 3 ?81 255 1 15 530 24 8 25 0 0 0 26 70 11 CI9 list_
type0 0 1 uI10 notransmit0 0 1 lCCCDCCDI12 finger_index0 0 1 dI12 finger_block10
12 0 CZ16 0 4 T8 0 0 3 20 1 27 27 13 255 17 281 0 8 0 28 0 0 29 0 51 255 18 481
 0 30 31 0 0 +-.041 -.019 -.02 0 -1 0 .006 0 0 -1 31 255 19 438 0 22 32 0 0 --.0
41 -.019 -.02 0 -1 0 0 0 -1 .006 29 255 20 413 0 23 33 0 -.035 -.019 -.02 19 8 C
CCCCCCA5 owner12 0 Z21 93 0 8 29 0 34 V0 16 255 22 431 35 ?36 0 37 19 0 0 8 18 2
55 23 410 38 39 0 40 20 ?8 81 1 38 503 41 23 0 0 42 43 44 17 255 39 0 45 46 47 2
3 48 49 0 50 +18 40 406 51 52 23 53 33 ?8 81 1 51 501 41 40 0 0 54 42 55 17 52 0
 56 57 58 40 59 37 0 47 +18 53 397 43 36 40 60 61 ?8 29 33 409 0 40 61 20 -.035
 0 -.02 29 61 400 0 53 62 33 -.041 -.019 -.026 29 62 396 0 60 63 61 -.041 0 -.02
6 18 60 393 42 59 53 64 62 ?8 29 63 387 0 64 65 62 .041 -.019 -.026 18 64 384 54
 66 60 67 63 ?8 29 65 383 0 67 68 63 .041 0 -.026 18 67 380 69 70 64 71 65 ?8 29
 68 374 0 71 72 65 .035 -.019 -.02 18 71 371 73 74 67 75 68 ?8 29 72 370 0 75 76
 68 .035 0 -.02 18 75 367 77 78 71 79 72 ?8 29 76 228 0 80 81 72 .05 0 -.026 18
 80 186 82 83 84 85 76 ?8 29 81 229 0 85 86 76 .05 0 -.035 18 85 190 87 88 80 89
 81 ?8 29 86 230 0 89 90 81 -.05 0 -.035 18 89 194 91 92 85 93 86 ?8 29 90 231 0
 93 94 86 -.05 0 -.026 18 93 198 95 96 89 97 90 ?8 29 94 233 0 97 98 90 -.035 0
 1040834085586084e-32 18 97 206 99 100 93 101 94 ?8 29 98 234 0 101 102 94 .035
 0 857252759403147e-32 18 101 210 103 104 97 0 98 ?8 29 102 89 0 79 105 98 .05 -
.019 -.026 18 79 87 106 107 75 108 102 ?8 29 105 84 0 108 109 102 .05 -.019 -.03
5 18 108 82 110 111 79 112 105 ?8 29 109 74 0 112 113 105 -.05 -.019 -.035 18 11
2 72 114 115 108 116 109 ?8 29 113 69 0 116 117 109 -.05 -.019 -.026 18 116 67 1
18 119 112 120 113 ?8 29 117 59 0 120 121 113 -.035 -.019 1040834085586084e-32 1
8 120 57 122 123 116 84 117 ?8 29 121 54 0 84 0 117 .035 -.019 857252759403147e-
32 18 84 52 124 125 120 80 121 ?8 81 1 124 312 41 84 0 0 103 99 126 17 125 0 127
 128 129 84 104 130 0 131 -15 255 127 260 0 128 132 0 17 128 0 127 133 125 71 13
4 135 0 136 +17 129 0 127 125 133 101 137 138 0 0 -17 104 0 139 100 131 101 125
 130 0 140 +16 130 242 141 ?104 142 143 144 0 0 8 17 131 0 139 104 145 84 123 14
6 0 134 -15 139 258 0 100 147 0 17 145 0 139 131 100 120 148 143 0 46 -17 123 0
 149 50 134 120 131 146 0 145 +16 146 15 150 ?123 151 135 152 0 0 8 17 134 0 149
 123 74 84 128 135 0 0 -15 149 5 0 153 154 155 17 74 0 149 134 153 71 156 157 0
 128 +16 135 11 158 ?128 146 159 160 0 0 8 81 1 158 518 41 135 0 0 161 162 163 1
6 159 385 164 ?107 135 165 166 0 0 8 30 255 160 12 0 135 166 152 0 +.035 -.019 -
.013 0 0 -1 30 166 8 0 159 0 160 0 +.0425 -.019 -.026 1 0 0 31 152 16 0 146 160
 167 0 +0 -.019 991469307088396e-32 0 -1 0 0 0 -1 .035 30 167 20 0 151 152 168 0
 +-.035 -.019 -.013 -533761069531325e-30 0 -1 16 151 19 169 ?50 170 146 167 0 0
 8 30 168 24 0 170 167 171 0 +-.0425 -.019 -.026 -1 0 462592926927149e-30 16 170
 398 172 ?119 173 151 168 0 0 8 30 171 28 0 173 168 174 0 +-.05 -.019 -.0305 0 0
 1 16 173 27 175 ?176 177 170 171 0 0 8 30 174 32 0 177 171 178 0 +-.025 -.019 -
.035 -1 0 277555756156289e-30 16 177 31 179 ?180 181 173 174 0 0 8 30 178 40 0 1
81 174 182 0 +.05 -.019 -.0305 0 0 1 16 181 39 183 ?184 185 177 178 0 0 8 31 182
 44 0 185 178 186 0 +0 -.019 177573785876366e-32 0 -1 0 0 0 -1 .029 16 185 43 18
7 ?188 189 181 182 0 0 8 30 186 227 0 190 182 191 0 +.0425 0 -.026 1 0 0 16 190
 381 192 ?83 138 0 186 0 0 8 30 191 226 0 138 186 193 0 +.035 0 -.013 0 0 -1 16
 138 178 161 ?137 194 190 191 0 0 8 31 193 225 0 194 191 195 0 +0 0 991469307088
396e-32 0 -1 0 0 0 -1 .035 16 194 174 196 ?100 197 138 193 0 0 8 30 195 224 0 19
7 193 198 0 +-.035 0 -.013 -533761069531325e-30 0 -1 16 197 170 162 ?47 199 194
 195 0 0 8 30 198 223 0 199 195 200 0 +-.0425 0 -.026 -1 0 462592926927149e-30 1
6 199 394 201 ?96 202 197 198 0 0 8 30 200 222 0 202 198 203 0 +-.05 0 -.0305 0
 0 1 16 202 162 204 ?205 206 199 200 0 0 8 30 203 221 0 206 200 207 0 +-.025 0 -
.035 -1 0 277555756156289e-30 16 206 156 208 ?209 210 202 203 0 0 8 30 207 220 0
 210 203 211 0 +.05 0 -.0305 0 0 1 16 210 152 212 ?213 165 206 207 0 0 8 31 211
 219 0 165 207 214 0 +0 0 177573785876366e-32 0 -1 0 0 0 -1 .029 16 165 148 215
 ?216 159 210 211 0 0 8 30 214 273 0 189 211 217 0 +.05 -.019 -.026 0 1 0 16 189
 236 218 ?219 220 185 214 0 0 8 30 217 274 0 220 214 221 0 +.05 -.019 -.035 0 1
 0 16 220 237 222 ?88 223 189 217 0 0 8 30 221 275 0 223 217 224 0 +-.05 -.019 -
.035 0 1 0 16 223 238 225 ?92 226 220 221 0 0 8 30 224 276 0 226 221 227 0 +-.05
 -.019 -.026 0 1 0 16 226 239 228 ?229 143 223 224 0 0 8 30 227 278 0 143 224 14
4 0 +-.035 -.019 1040834085586084e-32 0 1 0 16 143 241 230 ?148 130 226 227 0 0
 8 30 144 279 0 130 227 231 0 +.035 -.019 857252759403147e-32 0 1 0 30 231 377 0
 142 144 232 0 +.035 0 -.02 0 1 0 16 142 375 233 ?133 234 130 231 0 0 8 30 232 3
90 0 234 231 235 0 -.041 -.019 -.026 0 1 0 16 234 388 236 ?66 237 142 232 0 0 8
 30 235 403 0 237 232 238 0 +-.041 0 -.026 0 1 0 16 237 401 239 ?240 49 234 235
 0 0 8 30 238 416 0 49 235 241 0 --.035 -.019 -.02 0 1 0 16 49 414 242 ?39 243 2
37 238 0 0 8 31 241 435 0 243 238 244 0 +.041 0 -.02 0 -1 0 0 0 -1 .006 16 243 4
19 245 ?70 157 49 241 0 0 8 31 244 436 0 157 241 32 0 -.041 -.019 -.02 0 -1 0 0
 0 -1 .006 16 157 423 246 ?74 37 243 244 0 0 8 31 32 437 0 37 244 19 0 +-.041 0
 -.02 0 -1 0 0 0 -1 .006 16 37 427 247 ?52 22 157 32 0 0 8 81 1 247 509 41 37 0
 0 236 35 248 80 255 1 41 249 250 9000 0 0 0 0 3 6 0 0 0 FFTFTFTTFFFFFF1 81 1 23
6 508 41 234 0 0 233 247 251 81 1 35 510 41 22 0 0 247 242 252 82 255 3 248 7 4
 1 81 1 242 511 41 49 0 0 35 239 253 82 3 252 7 5 1 81 1 239 512 41 237 0 0 242
 192 254 82 3 253 7 6 1 81 1 192 513 41 190 0 0 239 164 255 82 3 254 7 7 1 81 1
 164 514 41 159 0 0 192 201 256 82 3 255 7 8 1 81 1 201 515 41 199 0 0 164 172 2
57 82 3 256 7 9 1 81 1 172 516 41 170 0 0 201 161 258 82 3 257 7 10 1 81 1 161 5
17 41 138 0 0 172 158 259 82 3 258 7 11 1 82 3 259 7 12 1 81 1 233 507 41 142 0
 0 246 236 260 82 3 251 7 3 1 81 1 246 506 41 157 0 0 245 233 261 82 3 260 7 2 1
 81 1 245 505 41 243 0 0 43 246 262 82 3 261 7 1 1 81 1 43 504 41 53 0 0 38 245
 263 82 3 262 7 0 1 82 3 263 7 7 0 79 255 9 250 BTI/DetId17 70 0 56 83 137 67 78
 243 0 264 +15 56 146 0 137 265 266 17 83 0 56 267 70 80 264 190 0 219 +17 137 0
 56 70 140 75 129 138 0 0 +17 78 0 268 136 269 75 70 243 0 133 -17 264 0 270 66
 219 67 83 190 0 269 -15 270 262 0 264 28 0 17 66 0 270 107 264 64 269 234 0 153
 +17 219 0 270 264 107 80 271 189 0 213 +17 269 0 268 78 156 67 66 234 0 0 -15 2
68 449 0 156 272 0 17 156 0 268 269 136 64 74 157 0 0 -17 136 0 268 156 78 71 13
3 142 0 0 -17 133 0 127 129 128 75 136 142 0 137 +14 255 272 448 273 ?30 265 268
 17 31 -0 0 30 265 34 81 1 273 521 41 272 0 0 169 274 275 14 30 469 274 ?0 272 2
76 17 18 -0 0 0 272 34 14 265 133 277 ?272 154 56 17 278 -0 0 272 154 34 51 31 4
60 0 272 279 18 0 +.041 -.019 -.02 0 -1 0 .006 0 0 -1 13 34 94 0 0 0 0 0 0 21 28
 14 28 263 280 ?132 0 270 17 279 +0 0 132 0 34 81 1 280 526 41 28 0 0 281 282 28
3 14 132 261 281 ?147 28 127 17 284 +0 0 147 28 34 50 255 279 272 0 28 284 31 0
 +.0425 -.019 -.026 0 0 1 1 0 0 50 284 271 0 132 285 279 0 +.035 -.019 -.013 1 0
 0 0 0 -1 51 285 270 0 147 286 284 0 -0 -.019 991469307088396e-32 0 1 0 .035 0 0
 1 14 147 259 287 ?288 132 139 17 285 -0 0 288 132 34 50 286 269 0 288 289 285 0
 +-.035 -.019 -.013 1 0 -533761069531325e-30 -533761069531325e-30 0 -1 14 288 25
7 282 ?290 147 45 17 286 -0 0 290 147 34 50 289 268 0 290 291 286 0 +-.0425 -.01
9 -.026 -462592926927149e-30 0 -1 -1 0 462592926927149e-30 14 290 255 292 ?293 2
88 294 17 289 -0 0 293 288 34 50 291 267 0 293 295 289 0 +-.05 -.019 -.0305 -1 0
 0 0 0 1 14 293 253 296 ?297 290 298 17 291 +0 0 297 290 34 50 295 266 0 297 299
 291 0 +-.025 -.019 -.035 -277555756156289e-30 0 -1 -1 0 277555756156289e-30 14
 297 251 300 ?301 293 302 17 295 +0 0 301 293 34 50 299 265 0 301 303 295 0 +.05
 -.019 -.0305 -1 0 0 0 0 1 14 301 249 304 ?305 297 306 17 299 -0 0 305 297 34 51
 303 264 0 305 278 299 0 -0 -.019 177573785876366e-32 0 1 0 .029 0 0 1 14 305 24
5 307 ?154 301 308 17 303 +0 0 154 301 34 50 278 218 0 265 309 303 0 +-693889390
390723e-32 0 0 0 -1 0 1 0 0 50 309 2 0 154 0 278 0 +-693889390390723e-32 -.019 0
 0 -1 0 1 0 0 14 154 1 310 ?265 305 149 17 309 +0 0 265 305 34 81 1 310 524 41 1
54 0 0 277 281 311 81 1 277 523 41 265 0 0 274 310 312 81 1 281 525 41 132 0 0 3
10 280 313 82 3 311 7 3 2 82 3 313 7 4 2 81 1 274 522 41 30 0 0 273 277 314 82 3
 312 7 2 2 82 3 314 7 1 2 81 1 307 353 41 305 0 0 175 287 315 15 308 244 0 188 3
05 316 17 188 0 308 188 188 0 317 185 0 0 +15 316 246 0 318 305 0 17 318 0 316 3
18 318 0 216 165 0 0 -17 216 0 266 216 216 0 318 165 0 0 +15 266 147 0 216 265 0
 17 317 0 155 317 317 0 188 185 0 0 -15 155 6 0 317 154 0 81 1 175 352 41 173 0
 0 204 307 319 81 1 287 356 41 147 0 0 307 300 320 82 3 315 6 0 2 81 1 300 357 4
1 297 0 0 287 304 321 82 3 320 6 3 2 81 1 304 358 41 301 0 0 300 296 322 82 3 32
1 6 4 2 81 1 296 363 41 293 0 0 304 323 324 82 3 322 6 5 2 81 1 323 364 41 8 0 2
5 296 77 325 82 3 324 6 10 2 81 1 25 529 326 8 323 15 0 0 327 81 1 77 497 41 75
 0 0 323 69 328 82 3 325 6 0 3 81 1 69 498 41 67 0 0 77 73 329 82 3 328 7 0 0 81
 1 73 499 41 71 0 0 69 54 330 82 3 329 7 1 0 81 1 54 500 41 64 0 0 73 51 331 82
 3 330 7 2 0 82 3 331 7 3 0 80 1 326 24 332 8038 0 0 0 0 0 0 0 0 0 TTTTTTTTTTTTT
F10 98 255 6 327 80 97 114 116 32 49 79 14 332 SDL/TYSA_UNAME81 1 204 351 41 202
 0 0 183 175 333 82 3 319 6 25 1 81 1 183 342 41 181 0 0 212 204 334 82 3 333 6
 24 1 81 1 212 341 41 210 0 0 179 183 335 82 3 334 6 15 1 81 1 179 340 41 177 0
 0 208 212 336 82 3 335 6 14 1 81 1 208 339 41 206 0 0 150 179 337 82 3 336 6 13
 1 81 1 150 338 41 146 0 0 196 208 338 82 3 337 6 12 1 81 1 196 337 41 194 0 0 1
87 150 339 82 3 338 6 11 1 81 1 187 336 41 185 0 0 215 196 340 82 3 339 6 10 1 8
1 1 215 335 41 165 0 0 225 187 341 82 3 340 6 9 1 81 1 225 334 41 223 0 0 228 21
5 342 82 3 341 6 8 1 81 1 228 333 41 226 0 0 218 225 343 82 3 342 6 7 1 81 1 218
 330 41 189 0 0 222 228 344 82 3 343 6 6 1 81 1 222 329 41 220 0 0 230 218 345 8
2 3 344 6 3 1 81 1 230 328 41 143 0 0 141 222 346 82 3 345 6 2 1 81 1 141 327 41
 130 0 0 114 230 347 82 3 346 6 1 1 81 1 114 326 41 112 0 0 91 141 348 82 3 347
 6 0 1 81 1 91 325 41 89 0 0 118 114 349 82 3 348 6 15 0 81 1 118 324 41 116 0 0
 95 91 350 82 3 349 6 14 0 81 1 95 323 41 93 0 0 106 118 351 82 3 350 6 13 0 81
 1 106 318 41 79 0 0 82 95 352 82 3 351 6 12 0 81 1 82 317 41 80 0 0 110 106 353
 82 3 352 6 7 0 81 1 110 316 41 108 0 0 87 82 354 82 3 353 6 6 0 81 1 87 315 41
 85 0 0 122 110 355 82 3 354 6 5 0 81 1 122 314 41 120 0 0 99 87 356 82 3 355 6
 4 0 81 1 99 313 41 97 0 0 124 122 357 82 3 356 6 3 0 82 3 357 6 2 0 15 306 248
 0 213 301 0 17 213 0 306 271 88 80 267 210 0 0 +17 271 0 306 358 213 79 219 189
 0 0 -17 88 0 306 213 358 85 111 220 0 267 +17 267 0 56 209 83 85 213 210 0 359
 -17 209 0 56 205 267 89 359 206 0 0 +17 359 0 302 111 92 85 209 206 0 0 -15 302
 250 0 359 297 0 17 111 0 302 180 359 108 88 220 0 358 -17 92 0 302 359 180 89 1
15 223 0 360 +17 180 0 302 92 111 112 361 177 0 0 +17 115 0 298 176 360 112 92 2
23 0 362 -17 360 0 298 115 229 89 205 202 0 209 -15 298 252 0 360 293 0 17 229 0
 298 360 176 93 363 226 0 205 +17 205 0 56 58 209 93 360 202 0 0 +17 58 0 56 52
 205 60 96 199 0 0 -17 96 0 294 363 240 93 58 199 0 229 +15 294 254 0 364 290 0
 17 363 0 294 364 96 116 229 226 0 176 -17 240 0 294 96 364 60 365 237 0 58 +17
 364 0 294 240 363 53 119 170 0 365 -17 365 0 276 366 59 53 240 237 0 0 -15 276
 470 0 366 30 0 17 366 0 276 48 365 23 36 22 0 0 -17 59 0 276 365 48 60 52 37 0
 240 -17 48 0 276 59 366 40 39 49 0 0 -17 36 0 149 119 50 53 366 22 0 364 +17 11
9 0 149 362 36 116 364 170 0 363 +17 50 0 149 36 123 23 46 151 0 366 +17 46 0 45
 148 39 120 50 151 0 0 -15 45 256 0 47 288 0 17 148 0 45 47 46 97 145 143 0 57 +
17 47 0 45 39 148 40 57 197 0 48 +17 57 0 56 140 52 97 47 197 0 0 -17 140 0 56 1
37 57 101 100 194 0 129 -17 100 0 139 145 104 97 140 194 0 148 +17 362 0 149 361
 119 112 176 173 0 180 -17 361 0 149 184 362 108 180 177 0 0 -17 176 0 298 229 1
15 116 362 173 0 0 +17 184 0 149 153 361 79 358 181 0 271 +17 153 0 149 74 184 6
4 107 159 0 156 -17 358 0 306 88 271 108 184 181 0 361 -17 107 0 270 219 66 79 1
53 159 0 184 +81 1 292 528 41 290 0 0 282 0 367 81 1 282 527 41 288 0 0 280 292
 368 82 3 367 7 7 2 82 3 368 7 6 2 82 3 283 7 5 2 81 1 169 520 41 151 0 0 162 27
3 369 82 3 275 7 0 2 81 1 162 519 41 197 0 0 158 169 370 82 3 369 7 15 1 82 3 37
0 7 14 1 82 3 163 7 13 1 81 1 103 311 41 101 0 0 0 124 371 82 3 126 6 1 0 82 3 3
71 6 0 0 81 1 42 502 41 60 0 0 51 38 372 82 3 372 7 5 0 82 3 55 7 4 0 82 3 44 7
 6 0 19 29 282 0 8 0 21 17 S0 74 4 CI16 index_map_offset0 0 1 dCCZ20 27 3 0 0 29
2 25 15 0 0 0 0 0 0 0 0 0 0 0 0 0 0 0 0 0 80 1 24 373 374 8017 0 0 0 0 0 0 0 0 0
 TTTTTTTTTTTTTF3 84 255 6 26 Part 179 13 374 SDL/TYSA_NAME81 1 6 119 24 3 375 0
 0 0 376 70 7 0 4 T3 0 0 3 20 1 377 377 13 9 37 0 3 0 378 0 0 379 0 51 10 36 0 3
78 380 0 0 -0 1622657008870245e-33 .019 0 0 -1 .0265 -1 0 0 31 11 61 0 381 382 0
 0 +0 -.003 0 0 0 1 1 0 0 .018555 19 12 11 0 3 379 0 383 V0 16 13 6 384 ?385 0 3
86 387 0 0 3 81 1 384 43 41 13 0 0 388 389 390 17 385 0 391 385 385 0 392 13 0 0
 +16 386 26 388 ?393 13 381 382 0 0 3 31 387 7 0 13 394 382 0 +0 162265700887024
5e-33 .019 0 0 1 1 0 0 .0265 31 394 110 0 395 0 387 0 +0 -.003 .019 0 0 1 1 0 0
 .018555 31 382 31 0 386 387 11 0 +0 1622657008870245e-33 0 0 0 1 1 0 0 .0265 16
 395 82 396 ?397 381 0 394 0 0 3 81 1 396 114 41 395 0 0 398 399 400 17 397 0 40
1 397 397 0 402 395 0 0 +16 381 76 398 ?403 386 395 11 0 0 3 81 1 398 113 41 381
 0 0 404 396 405 17 403 0 406 403 403 0 407 381 0 0 +15 406 59 0 403 408 409 17
 407 0 410 407 407 0 403 381 0 0 -15 410 91 0 407 411 0 14 411 92 399 ?0 408 401
 9 412 -0 0 0 408 383 81 1 399 115 41 411 0 0 396 413 414 14 408 21 413 ?411 415
 406 9 380 -0 0 411 415 383 15 401 90 0 397 411 410 51 412 107 0 411 0 416 0 +0
 -.003 -.0583339936888932 0 0 1 .018555 1 0 0 13 383 12 0 0 0 0 0 0 12 378 14 37
8 33 389 ?415 0 417 9 10 -0 0 415 0 383 81 1 389 44 41 378 0 0 384 404 418 14 41
5 1 419 ?408 378 420 9 416 +0 0 408 378 383 15 417 32 0 392 378 421 17 392 0 417
 392 392 0 385 13 0 0 -15 421 34 0 393 378 0 17 393 0 421 393 393 0 422 386 0 0
 +17 422 0 409 422 422 0 393 386 0 0 -15 409 25 0 422 408 0 81 1 419 117 41 415
 0 0 413 0 423 15 420 67 0 402 415 391 50 416 2 0 415 412 380 0 +0 0 .019 0 0 1
 1 0 0 50 380 30 0 408 416 10 0 +0 0 0 0 0 1 1 0 0 17 402 0 420 402 402 0 397 39
5 0 0 -15 391 5 0 385 415 0 81 1 413 116 41 408 0 0 399 419 424 82 3 423 10 2 2
 82 3 424 10 1 2 81 1 404 47 41 3 0 375 389 398 425 82 3 418 6 0 2 81 1 375 118
 326 3 404 6 0 0 426 82 3 425 6 0 3 98 6 426 80 97 114 116 32 49 82 3 414 10 0 2
 82 3 405 10 0 1 82 3 400 10 1 1 81 1 388 42 41 386 0 0 0 384 427 82 3 427 6 0 1
 82 3 390 6 1 1 19 379 38 0 3 0 12 9 S0 74 20 377 3 0 0 419 375 6 0 0 0 0 0 0 0
 0 0 0 0 0 0 0 0 0 0 84 6 376 Part 11 0 
